<svg width="22" height="23" viewBox="0 0 22 23" fill="none" xmlns="http://www.w3.org/2000/svg">
<path d="M14.3697 11.5C14.3697 12.1665 14.172 12.8179 13.8018 13.372C13.4315 13.9262 12.9053 14.3581 12.2896 14.6131C11.6739 14.8681 10.9964 14.9348 10.3427 14.8048C9.6891 14.6748 9.08871 14.3539 8.61746 13.8827C8.14622 13.4114 7.8253 12.811 7.69529 12.1574C7.56527 11.5038 7.632 10.8262 7.88703 10.2105C8.14207 9.59483 8.57395 9.06858 9.12808 8.69832C9.6822 8.32807 10.3337 8.13045 11.0001 8.13045C11.8929 8.13323 12.7484 8.48912 13.3797 9.12044C14.011 9.75175 14.3669 10.6072 14.3697 11.5ZM21.53 6.86686V16.1332C21.53 17.6971 20.9087 19.1969 19.8029 20.3028C18.697 21.4086 17.1972 22.0299 15.6333 22.0299H6.36695C4.80304 22.0299 3.30318 21.4086 2.19733 20.3028C1.09148 19.1969 0.470215 17.6971 0.470215 16.1332V6.86686C0.470215 5.30295 1.09148 3.80309 2.19733 2.69724C3.30318 1.59139 4.80304 0.970123 6.36695 0.970123H15.6333C17.1972 0.970123 18.697 1.59139 19.8029 2.69724C20.9087 3.80309 21.53 5.30295 21.53 6.86686ZM16.0545 11.5C16.0545 10.5004 15.758 9.52315 15.2026 8.69197C14.6473 7.86079 13.8579 7.21296 12.9343 6.83041C12.0108 6.44785 10.9945 6.34776 10.0141 6.54278C9.0336 6.73781 8.13301 7.21919 7.42614 7.92605C6.71928 8.63291 6.2379 9.53351 6.04288 10.514C5.84785 11.4944 5.94795 12.5107 6.3305 13.4342C6.71305 14.3578 7.36088 15.1472 8.19206 15.7025C9.02324 16.2579 10.0005 16.5544 11.0001 16.5544C12.3406 16.5544 13.6262 16.0219 14.5741 15.074C15.5219 14.1261 16.0545 12.8405 16.0545 11.5ZM17.7392 6.02447C17.7392 5.77456 17.6651 5.53026 17.5263 5.32246C17.3874 5.11466 17.1901 4.95271 16.9592 4.85707C16.7283 4.76143 16.4742 4.73641 16.2291 4.78516C15.984 4.83392 15.7589 4.95426 15.5822 5.13098C15.4054 5.3077 15.2851 5.53285 15.2363 5.77796C15.1876 6.02307 15.2126 6.27713 15.3082 6.50802C15.4039 6.73891 15.5658 6.93626 15.7736 7.07511C15.9814 7.21395 16.2257 7.28806 16.4756 7.28806C16.8108 7.28806 17.1322 7.15493 17.3691 6.91796C17.6061 6.68099 17.7392 6.35959 17.7392 6.02447Z" fill="white"/>
</svg>
