<svg width="16" height="16" viewBox="0 0 16 16" fill="none" xmlns="http://www.w3.org/2000/svg">
<path d="M14.6666 14.6667L11.2916 11.2917M11.2916 11.2917C11.8333 10.75 12.263 10.1069 12.5562 9.3991C12.8494 8.69133 13.0003 7.93275 13.0003 7.16667C13.0003 6.40059 12.8494 5.642 12.5562 4.93424C12.263 4.22647 11.8333 3.58337 11.2916 3.04167C10.7499 2.49997 10.1068 2.07026 9.39907 1.7771C8.6913 1.48393 7.93272 1.33304 7.16664 1.33304C6.40056 1.33304 5.64197 1.48393 4.9342 1.7771C4.22644 2.07026 3.58334 2.49997 3.04164 3.04167C1.94762 4.13569 1.33301 5.61949 1.33301 7.16667C1.33301 8.71384 1.94762 10.1977 3.04164 11.2917C4.13566 12.3857 5.61946 13.0003 7.16664 13.0003C8.71381 13.0003 10.1976 12.3857 11.2916 11.2917Z" stroke="white" stroke-width="2" stroke-linecap="round" stroke-linejoin="round"/>
</svg>
