<svg width="23" height="19" viewBox="0 0 23 19" fill="none" xmlns="http://www.w3.org/2000/svg">
<path d="M22.5403 3.01587C22.6055 2.92602 22.5089 2.80808 22.4056 2.84852C21.665 3.13574 20.8915 3.3293 20.103 3.42471C20.979 2.90148 21.658 2.10404 22.0349 1.15587C22.0731 1.05928 21.9675 0.972794 21.8777 1.02334C21.0611 1.47374 20.1816 1.79834 19.2662 1.98591C19.2474 1.9897 19.2279 1.98859 19.2096 1.98269C19.1913 1.97679 19.1749 1.9663 19.1618 1.95221C18.4729 1.22537 17.5659 0.742895 16.5781 0.577897C15.5904 0.412898 14.5758 0.574372 13.6881 1.03785C12.8004 1.50132 12.0879 2.24154 11.6587 3.14632C11.2295 4.05111 11.1069 5.07114 11.3096 6.05185C11.3132 6.06893 11.3128 6.0866 11.3086 6.10353C11.3043 6.12045 11.2962 6.13618 11.285 6.14951C11.2737 6.16283 11.2595 6.17341 11.2436 6.18043C11.2276 6.18745 11.2102 6.19072 11.1928 6.19001C9.41527 6.07961 7.67906 5.60722 6.09066 4.80182C4.50226 3.99641 3.09516 2.87498 1.95567 1.50631C1.94429 1.49207 1.92956 1.48088 1.91279 1.47374C1.89602 1.4666 1.87774 1.46374 1.85959 1.46541C1.84144 1.46708 1.82399 1.47323 1.80881 1.48331C1.79362 1.49339 1.78118 1.50708 1.77259 1.52316C1.41796 2.19589 1.23289 2.94503 1.23346 3.70551C1.23202 4.46297 1.4179 5.20903 1.77456 5.87727C2.13121 6.54551 2.64757 7.11519 3.27766 7.53558C2.61012 7.51744 1.95477 7.35255 1.35813 7.05261C1.28175 7.0133 1.18965 7.06834 1.19302 7.1537C1.23785 8.16581 1.60503 9.13708 2.24096 9.92573C2.91663 10.744 3.85418 11.3039 4.89505 11.5105C4.49436 11.6325 4.07835 11.6968 3.65954 11.7015C3.43183 11.6987 3.20451 11.6819 2.97889 11.6509C2.89465 11.6397 2.82614 11.7183 2.85534 11.797C3.17705 12.6678 3.75386 13.4214 4.51046 13.9594C5.26706 14.4974 6.1683 14.7948 7.0965 14.8127C5.30425 16.2224 3.05376 16.9189 0.778566 16.7682C0.659508 16.7603 0.604472 16.9187 0.706682 16.9794C2.71855 18.1732 5.0154 18.8019 7.35483 18.7989C9.0841 18.8169 10.7996 18.4901 12.4012 17.8377C14.0028 17.1852 15.4583 16.2202 16.6827 14.999C17.9072 13.7778 18.8761 12.3248 19.5327 10.725C20.1894 9.12515 20.5207 7.41051 20.5074 5.6812V5.14207C20.5074 5.12463 20.5114 5.10744 20.5192 5.09184C20.527 5.07624 20.5383 5.06268 20.5523 5.05221C21.3138 4.47743 21.984 3.7909 22.5403 3.01587Z" fill="white"/>
</svg>
