<svg width="86" height="31" viewBox="0 0 86 31" fill="none" xmlns="http://www.w3.org/2000/svg">
<g clip-path="url(#clip0_16_101)">
<mask id="mask0_16_101" style="mask-type:luminance" maskUnits="userSpaceOnUse" x="-50" y="-153" width="396" height="512">
<path d="M-49.422 358.482H345.433V-152.507H-49.422V358.482Z" fill="white"/>
</mask>
<g mask="url(#mask0_16_101)">
<path d="M74.623 13.6649H67.7395L69.0686 8.06342H66.6143L65.2852 13.6649H63.0361L62.9341 14.1011H65.1833L62.218 26.5042C62.0483 27.1952 61.8438 27.9223 61.8438 28.7223C61.8438 29.705 62.4574 30.5773 63.82 30.5773C66.2736 30.5773 67.5001 27.1223 67.6369 26.7222L67.2963 26.5764C67.0575 27.1584 66.1033 29.4133 64.9446 29.4133C64.4678 29.4133 64.2632 29.123 64.2632 28.541C64.2632 28.1771 64.331 27.8133 64.4336 27.4132L67.6027 14.1011H72.101L69.1021 26.5042C68.9318 27.1584 68.7279 27.9584 68.7279 28.6501C68.7279 29.6682 69.3409 30.5773 70.7383 30.5773C73.1913 30.5773 74.4185 27.1223 74.5546 26.7222L74.214 26.5764C73.9753 27.1223 72.9881 29.4133 71.8964 29.4133C71.2835 29.4133 71.1809 29.0501 71.1809 28.5043C71.1809 28.1404 71.2493 27.8139 71.3513 27.4139L74.623 13.6649ZM58.2314 29.414C57.6178 29.414 57.4817 29.0507 57.4817 28.5772C57.4817 28.2139 57.5494 27.8139 57.652 27.4139L59.8327 18.3935C60.0373 17.5567 60.2418 16.8296 60.2418 15.8476C60.2418 14.7566 59.5605 13.3746 57.6178 13.3746C55.4029 13.3746 54.2099 15.3024 53.7331 16.1386L54.3125 13.6656H49.6433L49.5071 14.1017H51.7221L47.8374 30.2508H50.291L52.9492 19.302C53.5621 16.8289 54.9938 14.283 56.6294 14.283C57.6178 14.283 57.9243 14.974 57.9243 15.6289C57.9243 16.2108 57.7539 16.8289 57.5836 17.556L55.4371 26.5035C55.3003 27.0855 55.0622 28.1036 55.0622 28.7952C55.0622 29.7778 55.6751 30.5779 57.0384 30.5779C59.4921 30.5779 60.7192 27.1229 60.8895 26.7229L60.5489 26.5771C60.2076 27.3042 59.2875 29.414 58.2314 29.414ZM44.2592 27.4132L47.5645 13.6649H45.1115L44.7018 15.4469C44.5998 15.083 44.2934 13.301 42.112 13.301C39.2151 13.301 37.7841 15.8469 36.864 18.3928C36.3189 19.9207 35.1943 23.7395 35.1265 26.3222C35.0233 29.0862 36.2847 30.5773 38.2615 30.5773C40.1358 30.5773 41.3281 28.5772 41.7713 27.5584C41.7371 27.7042 41.6694 28.2501 41.6694 28.6501C41.6352 29.6682 42.3165 30.5773 43.6456 30.5773C46.2018 30.5773 47.3264 27.0855 47.4625 26.7222L47.1219 26.5764C46.8832 27.1584 45.9631 29.4133 44.7702 29.4133C44.2592 29.4133 44.054 29.0501 44.0889 28.4313C44.0889 28.1771 44.1572 27.8133 44.2592 27.4132ZM42.3165 25.0132C41.5326 27.6675 40.3061 29.7049 38.8409 29.7049C37.8183 29.7049 37.3415 29.0501 37.375 27.5952C37.4776 24.3583 39.2499 18.5754 39.6583 17.3018C40.3403 15.156 41.2945 13.9198 42.521 13.9198C43.6456 13.9198 44.1914 14.974 44.1572 16.1747C44.0889 17.9567 43.3049 21.5214 42.3165 25.0125M31.3774 29.414C30.8664 29.414 30.696 29.123 30.696 28.541C30.696 28.1771 30.7302 27.8501 30.8322 27.4139L37.1705 1.37152H32.4335L32.3316 1.80831H34.5465L28.6172 26.5042C28.4469 27.2319 28.2424 27.9958 28.2424 28.7959C28.2424 29.7049 28.7534 30.5779 30.1502 30.5779C32.6723 30.5779 33.8994 27.2319 34.0697 26.7229L33.7291 26.5771C33.4903 27.1958 32.4677 29.414 31.3774 29.414ZM74.5211 7.4821C73.703 7.4821 73.1236 8.17242 73.1236 9.15505C73.1236 9.95508 73.6352 10.6099 74.3849 10.6099C75.1688 10.6099 75.7818 9.91896 75.7818 8.97312C75.7818 8.13695 75.2708 7.4821 74.5211 7.4821ZM82.564 13.301C79.6323 13.301 78.0993 15.5205 77.2128 18.3567C76.6334 20.1762 75.714 23.1215 75.714 26.3945C75.714 28.0675 76.4302 30.5773 79.5303 30.5773C82.7679 30.5773 84.1647 26.2493 84.3692 25.7402L83.9266 25.5215C83.4834 26.6493 82.2904 29.6314 80.2123 29.6314C78.8832 29.6314 78.167 28.541 78.167 26.5035C78.167 23.5576 79.0193 20.5033 79.769 18.1019C80.6891 15.1559 81.2684 13.7739 82.6311 13.7739C83.5176 13.7739 84.0634 14.2101 84.0634 14.7921C84.0634 15.6289 83.5518 16.0289 83.5518 16.7922C83.5518 17.4838 84.0292 17.9928 84.6421 17.9928C85.3919 17.9928 85.8686 17.338 85.8686 16.2831C85.8686 15.1927 85.2899 13.301 82.5633 13.301M24.3913 29.414C23.948 29.414 23.6757 29.123 23.6757 28.541C23.6757 28.2501 23.7441 27.8139 23.8461 27.4139L27.0494 14.1017H29.6734L29.7754 13.6656H27.152L28.5147 8.06342H26.061L24.6977 13.6649H22.6873L22.5854 14.1011H24.5958L21.6311 26.5035C21.4602 27.1952 21.2563 27.8862 21.2563 28.7952C21.2563 29.6682 21.7673 30.5773 23.1641 30.5773C25.7545 30.5773 26.8791 27.1952 27.0836 26.7222L26.743 26.5764C26.5043 27.1584 25.5158 29.4133 24.3913 29.4133M3.39943 10.137H2.58004L4.5227 2.0264H4.86336C5.74985 2.0264 5.95372 2.13543 5.68146 3.77227H5.88598L6.36342 1.77153H1.79678L1.31934 3.77227H1.52386C2.03485 2.38963 2.24002 2.0264 3.16006 2.0264H3.56847L1.62645 10.137H0.876741L0.80835 10.3919H3.33104L3.39813 10.137H3.39943ZM5.2395 10.3912H6.09115L6.97699 6.7543C7.21571 5.80845 7.7267 4.97164 8.27188 4.97164C8.61319 4.97164 8.71578 5.22649 8.71578 5.40843C8.71578 5.62651 8.64674 5.91815 8.57835 6.17235L7.89703 8.97248C7.86348 9.08217 7.7609 9.55444 7.7609 9.80929C7.7609 10.1732 7.93123 10.5003 8.40802 10.5003C9.29451 10.5003 9.66936 9.40989 9.77195 9.15505L9.60098 9.08278C9.49903 9.33699 9.19257 10.028 8.81771 10.028C8.68093 10.028 8.61254 9.9551 8.61254 9.73703C8.61254 9.55509 8.68158 9.19182 8.71578 9.04601L9.39709 6.31817C9.46548 6.02719 9.53258 5.73619 9.53258 5.40843C9.53258 5.00842 9.29386 4.53615 8.61319 4.53615C7.89703 4.53615 7.41959 5.2265 7.2841 5.44522L8.1693 1.77153H6.73892L6.66989 2.0264H7.24991L5.2395 10.3912ZM11.5094 10.5009C12.634 10.5009 13.1792 9.11894 13.2818 8.82796L13.0772 8.71825C12.8727 9.22795 12.4295 10.0641 11.6798 10.0641C11.2365 10.0641 10.9985 9.73702 10.9985 9.15442C10.9985 8.7544 11.0662 8.35438 11.1346 8.02727C12.1908 7.77306 13.9631 6.82721 13.9631 5.51747C13.9631 4.93616 13.6566 4.53615 12.9405 4.53615C11.6114 4.53615 10.1804 6.82658 10.1804 9.00989C10.1804 9.80993 10.4868 10.5009 11.5094 10.5009ZM12.9405 4.79038C13.2476 4.79038 13.3495 4.93619 13.3495 5.22717C13.3495 6.17302 12.4295 7.37304 11.2023 7.73692C11.5094 6.20912 12.2933 4.79038 12.9405 4.79038Z" fill="white"/>
</g>
<path d="M20.7109 0.789795L2.20638 29.8142H0.707158L0.60437 30.2509H5.23943L5.34142 29.8142H2.75147L9.84919 18.6848H16.4726L15.2927 29.8142H13.1113L13.0093 30.2509H19.7568L19.8593 29.8142H17.9508L21.0182 0.789795H20.7109ZM16.5232 18.2119H10.1509L17.7125 6.35447H17.7809L16.5232 18.2119Z" fill="white"/>
</g>
<defs>
<clipPath id="clip0_16_101">
<rect width="85.265" height="29.7881" fill="white" transform="translate(0.604004 0.789795)"/>
</clipPath>
</defs>
</svg>
